<svg width="242" height="242" viewBox="0 0 242 242" fill="none" xmlns="http://www.w3.org/2000/svg">
<path fill-rule="evenodd" clip-rule="evenodd" d="M20.7387 121C20.7387 65.6296 65.6163 20.7429 120.975 20.7429C176.335 20.7429 221.212 65.6296 221.212 121C221.212 121.466 221.244 121.924 221.304 122.373C221.258 122.807 221.241 123.249 221.251 123.695C221.337 127.216 220.886 132.677 219.73 137.897C218.471 143.583 216.829 146.851 215.87 147.859C211.696 152.24 205.953 154.782 199.905 154.928C193.857 155.074 187.997 152.81 183.617 148.635C180.754 145.905 179.933 141.899 179.709 132.59L178.112 66.2391C177.975 60.5127 173.222 55.9823 167.496 56.1202C161.771 56.2581 157.242 61.0118 157.38 66.7382L157.609 76.3164C147.64 68.1295 134.881 63.2152 120.975 63.2152C89.0689 63.2152 63.2034 89.0859 63.2034 120.999C63.2034 152.912 89.0689 178.783 120.975 178.783C138.595 178.783 154.373 170.893 164.969 158.453C166.158 160.262 167.588 162.009 169.31 163.651C177.672 171.621 188.857 175.942 200.403 175.664C211.95 175.386 222.914 170.533 230.883 162.169C235.995 156.805 238.582 148.688 239.978 142.383C241.477 135.611 242.111 128.476 241.984 123.196C241.974 122.816 241.945 122.441 241.897 122.072C241.933 121.719 241.951 121.362 241.951 121C241.951 54.1736 187.788 0 120.975 0C54.1627 0 0 54.1736 0 121C0 187.827 54.1627 242 120.975 242C149.223 242 175.233 232.305 195.824 216.067C200.32 212.52 201.092 205.999 197.545 201.5C194 197.003 187.48 196.232 182.983 199.779C165.92 213.234 144.399 221.257 120.975 221.257C65.6163 221.257 20.7387 176.371 20.7387 121ZM120.975 83.9581C100.523 83.9581 83.9421 100.542 83.9421 120.999C83.9421 141.457 100.523 158.04 120.975 158.04C141.429 158.04 158.009 141.457 158.009 120.999C158.009 100.542 141.429 83.9581 120.975 83.9581Z" fill="white"/>
</svg>
