<svg width="290" height="182" viewBox="0 0 290 182" fill="none" xmlns="http://www.w3.org/2000/svg">
<path d="M265.833 24.5834H181.25V0.416748H265.833V24.5834ZM286.689 145.417C281.348 161.089 262.172 181.667 225.052 181.667C187.908 181.667 157.82 160.775 157.82 113.094C157.82 65.848 185.914 41.5605 223.868 41.5605C261.109 41.5605 283.85 63.093 288.816 95.0413C289.758 101.155 290.133 109.396 289.964 120.9H192.971C194.542 159.699 235.057 160.92 248.409 145.417H286.689ZM193.817 97.0834H253.81C252.542 78.3905 240.084 70.2705 223.88 70.2705C206.166 70.2705 196.366 79.5505 193.817 97.0834ZM78.1308 181.522H0V0.670497H84.0154C150.184 1.64925 151.44 66.4522 116.882 84.118C158.703 99.343 160.104 181.522 78.1308 181.522ZM36.25 72.9167H79.5567C109.862 72.9167 114.671 36.6667 75.7867 36.6667H36.25V72.9167ZM77.2246 109.167H36.25V145.61H76.6204C113.535 145.61 111.275 109.167 77.2246 109.167Z" fill="white"/>
</svg>
