<svg width="27" height="27" viewBox="0 0 27 27" fill="none" xmlns="http://www.w3.org/2000/svg">
<path d="M24.8421 15.8424C24.1607 18.0667 22.7952 20.0194 20.9398 21.4227C19.3108 22.6488 17.3723 23.3965 15.3419 23.5821C13.3116 23.7676 11.2697 23.3836 9.44544 22.4731C7.6212 21.5626 6.08683 20.1617 5.01454 18.4277C3.94226 16.6936 3.3745 14.695 3.37499 12.6562C3.36774 10.2764 4.14135 7.96004 5.57718 6.06226C6.98048 4.20685 8.93322 2.8413 11.1575 2.15992C11.3041 2.11478 11.4603 2.11046 11.6091 2.14742C11.758 2.18438 11.894 2.26122 12.0024 2.36969C12.1109 2.47815 12.1878 2.61413 12.2247 2.763C12.2617 2.91188 12.2574 3.06801 12.2122 3.21461C11.7258 4.82346 11.6851 6.53413 12.0942 8.16432C12.5034 9.79452 13.3472 11.2832 14.5356 12.4717C15.7241 13.6601 17.2128 14.5039 18.843 14.9131C20.4732 15.3222 22.1838 15.2815 23.7927 14.7951C23.9393 14.7499 24.0954 14.7456 24.2443 14.7826C24.3932 14.8195 24.5291 14.8964 24.6376 15.0048C24.7461 15.1133 24.8229 15.2493 24.8599 15.3982C24.8968 15.547 24.8925 15.7032 24.8474 15.8498L24.8421 15.8424Z" fill="#B4B4B4"/>
</svg>
