<svg width="22" height="23" viewBox="0 0 22 23" fill="none" xmlns="http://www.w3.org/2000/svg">
<mask id="mask0_115_219" style="mask-type:alpha" maskUnits="userSpaceOnUse" x="0" y="0" width="22" height="22">
<path d="M11 22C17.0751 22 22 17.0751 22 11C22 4.92487 17.0751 0 11 0C4.92487 0 0 4.92487 0 11C0 17.0751 4.92487 22 11 22Z" fill="black"/>
</mask>
<g mask="url(#mask0_115_219)">
<path d="M11 21.6334C16.8727 21.6334 21.6334 16.8727 21.6334 11C21.6334 5.1274 16.8727 0.366699 11 0.366699C5.1274 0.366699 0.366699 5.1274 0.366699 11C0.366699 16.8727 5.1274 21.6334 11 21.6334Z" fill="black" stroke="white" stroke-width="6"/>
<path d="M18.2732 19.2525L8.45066 6.6001H6.59998V15.3964H8.08053V8.48032L17.111 20.1478C17.5185 19.8751 17.9066 19.5758 18.2732 19.2525Z" fill="url(#paint0_linear_115_219)"/>
<path d="M15.5222 6.6001H14.0555V15.4001H15.5222V6.6001Z" fill="url(#paint1_linear_115_219)"/>
</g>
<defs>
<linearGradient id="paint0_linear_115_219" x1="13.3222" y1="14.239" x2="17.6611" y2="19.6168" gradientUnits="userSpaceOnUse">
<stop stop-color="white"/>
<stop offset="1" stop-color="white" stop-opacity="0"/>
</linearGradient>
<linearGradient id="paint1_linear_115_219" x1="14.7889" y1="6.6001" x2="14.7643" y2="13.0626" gradientUnits="userSpaceOnUse">
<stop stop-color="white"/>
<stop offset="1" stop-color="white" stop-opacity="0"/>
</linearGradient>
</defs>
</svg>
