<svg width="21" height="24" viewBox="0 0 21 24" fill="none" xmlns="http://www.w3.org/2000/svg">
<g clip-path="url(#clip0_115_135)">
<path d="M11.0679 0.150108C10.7116 -0.0506869 10.2884 -0.0506869 9.9321 0.150108L0.556746 5.57222C0.200402 5.77301 0 6.15233 0 6.55392V17.4203C0 17.822 0.222715 18.2013 0.556746 18.4021L9.9321 23.8241C10.2884 24.025 10.7116 24.025 11.0679 23.8241L20.4433 18.4021C20.7996 18.2013 21 17.822 21 17.4203V6.55392C21 6.15233 20.7773 5.77301 20.4433 5.57222L11.0679 0.150108Z" fill="#AAAAAA"/>
<mask id="mask0_115_135" style="mask-type:luminance" maskUnits="userSpaceOnUse" x="0" y="-1" width="21" height="25">
<path d="M11.0679 0.150108C10.7116 -0.0506869 10.2884 -0.0506869 9.9321 0.150108L0.556746 5.57222C0.200402 5.77301 0 6.15233 0 6.55392V17.4203C0 17.822 0.222715 18.2013 0.556746 18.4021L9.9321 23.8241C10.2884 24.025 10.7116 24.025 11.0679 23.8241L20.4433 18.4021C20.7996 18.2013 21 17.822 21 17.4203V6.55392C21 6.15233 20.7773 5.77301 20.4433 5.57222L11.0679 0.150108Z" fill="white"/>
</mask>
<g mask="url(#mask0_115_135)">
<path d="M20.4656 5.57254L11.0455 0.150597C10.9565 0.106049 10.8451 0.0614187 10.7561 0.0390625L0.200439 18.1571C0.289525 18.2686 0.400924 18.3579 0.512158 18.4249L9.93213 23.8469C10.1994 24.0031 10.5112 24.0477 10.8007 23.9584L20.7105 5.79569C20.6436 5.70643 20.5546 5.63953 20.4655 5.57263L20.4656 5.57254Z" fill="#AAAAAA"/>
</g>
<mask id="mask1_115_135" style="mask-type:luminance" maskUnits="userSpaceOnUse" x="0" y="-1" width="21" height="25">
<path d="M11.0679 0.150108C10.7116 -0.0506869 10.2884 -0.0506869 9.9321 0.150108L0.556746 5.57222C0.200402 5.77301 0 6.15233 0 6.55392V17.4203C0 17.822 0.222715 18.2013 0.556746 18.4021L9.9321 23.8241C10.2884 24.025 10.7116 24.025 11.0679 23.8241L20.4433 18.4021C20.7996 18.2013 21 17.822 21 17.4203V6.55392C21 6.15233 20.7773 5.77301 20.4433 5.57222L11.0679 0.150108Z" fill="white"/>
</mask>
<g mask="url(#mask1_115_135)">
<path d="M20.4878 18.4022C20.755 18.2461 20.9554 17.9783 21.0445 17.6882L10.7115 0.0164087C10.4443 -0.0282215 10.1548 -0.00594751 9.90984 0.150217L0.556641 5.55005L10.6448 23.9806C10.7783 23.9582 10.9343 23.9136 11.0679 23.8466L20.4878 18.4023V18.4022Z" fill="white"/>
</g>
</g>
<defs>
<clipPath id="clip0_115_135">
<rect width="21" height="24" fill="white"/>
</clipPath>
</defs>
</svg>
