<svg width="17" height="21" viewBox="0 0 17 21" fill="none" xmlns="http://www.w3.org/2000/svg">
<g clip-path="url(#clip0_120_338)">
<path d="M16.888 15.9546L9.82813 0.660468C9.7404 0.472283 9.60443 0.311792 9.43462 0.195977C9.2648 0.0801622 9.06745 0.0133318 8.86345 0.00255787C8.65906 -0.0114144 8.45483 0.0320479 8.27297 0.128218C8.09111 0.224388 7.93858 0.369584 7.83196 0.548016L0.174856 13.1994C0.0584256 13.3905 -0.00220849 13.6114 6.14779e-05 13.8363C0.00233145 14.0612 0.0674115 14.2809 0.187672 14.4694L3.93126 20.3833C4.07289 20.6053 4.28108 20.7747 4.52477 20.8661C4.76847 20.9575 5.03461 20.9661 5.28349 20.8906L16.1475 17.6125C16.3111 17.5637 16.4625 17.4797 16.5915 17.366C16.7205 17.2524 16.8241 17.1119 16.8952 16.9539C16.9654 16.7967 17.0011 16.6259 17 16.4532C16.9988 16.2805 16.9608 16.1102 16.8885 15.954L16.888 15.9546ZM15.3074 16.6105L6.08866 19.3913C5.80743 19.4767 5.53749 19.228 5.596 18.9385L8.88961 2.85084C8.95117 2.54986 9.35864 2.50217 9.48747 2.78072L15.5845 15.9886C15.6114 16.0474 15.6256 16.1115 15.6259 16.1765C15.6262 16.2414 15.6127 16.3057 15.5863 16.3648C15.5599 16.4239 15.5213 16.4765 15.473 16.5189C15.4248 16.5613 15.3681 16.5925 15.3069 16.6104L15.3074 16.6105Z" fill="white"/>
</g>
<defs>
<clipPath id="clip0_120_338">
<rect width="17" height="21" fill="white"/>
</clipPath>
</defs>
</svg>
