<svg width="26" height="26" viewBox="0 0 26 26" fill="none" xmlns="http://www.w3.org/2000/svg">
<path d="M17.7234 15.1665C17.8101 14.4515 17.8751 13.7365 17.8751 12.9998C17.8751 12.2632 17.8101 11.5482 17.7234 10.8332H21.3851C21.5584 11.5265 21.6667 12.2523 21.6667 12.9998C21.6667 13.7473 21.5584 14.4732 21.3851 15.1665M15.8059 21.1898C16.4559 19.9873 16.9542 18.6873 17.3009 17.3332H20.4967C19.4472 19.1405 17.782 20.5095 15.8059 21.1898ZM15.5351 15.1665H10.4651C10.3567 14.4515 10.2917 13.7365 10.2917 12.9998C10.2917 12.2632 10.3567 11.5373 10.4651 10.8332H15.5351C15.6326 11.5373 15.7084 12.2632 15.7084 12.9998C15.7084 13.7365 15.6326 14.4515 15.5351 15.1665ZM13.0001 21.6232C12.1009 20.3232 11.3751 18.8823 10.9309 17.3332H15.0692C14.6251 18.8823 13.8992 20.3232 13.0001 21.6232ZM8.66675 8.6665H5.50341C6.54194 6.85412 8.20596 5.48285 10.1834 4.80984C9.53341 6.01234 9.04591 7.31234 8.66675 8.6665ZM5.50341 17.3332H8.66675C9.04591 18.6873 9.53341 19.9873 10.1834 21.1898C8.20987 20.5098 6.54806 19.1404 5.50341 17.3332ZM4.61508 15.1665C4.44175 14.4732 4.33341 13.7473 4.33341 12.9998C4.33341 12.2523 4.44175 11.5265 4.61508 10.8332H8.27675C8.19008 11.5482 8.12508 12.2632 8.12508 12.9998C8.12508 13.7365 8.19008 14.4515 8.27675 15.1665M13.0001 4.36567C13.8992 5.66567 14.6251 7.11734 15.0692 8.6665H10.9309C11.3751 7.11734 12.1009 5.66567 13.0001 4.36567ZM20.4967 8.6665H17.3009C16.9613 7.32491 16.4593 6.02978 15.8059 4.80984C17.7992 5.49234 19.4567 6.86817 20.4967 8.6665ZM13.0001 2.1665C7.00925 2.1665 2.16675 7.0415 2.16675 12.9998C2.16675 15.873 3.30811 18.6285 5.33976 20.6602C6.34573 21.6661 7.53998 22.4641 8.85434 23.0085C10.1687 23.553 11.5774 23.8332 13.0001 23.8332C15.8733 23.8332 18.6288 22.6918 20.6604 20.6602C22.6921 18.6285 23.8334 15.873 23.8334 12.9998C23.8334 11.5772 23.5532 10.1685 23.0088 8.8541C22.4644 7.53974 21.6664 6.34548 20.6604 5.33951C19.6544 4.33355 18.4602 3.53557 17.1458 2.99114C15.8315 2.44672 14.4227 2.1665 13.0001 2.1665Z" fill="white"/>
</svg>
