<svg width="41" height="22" viewBox="0 0 41 22" fill="none" xmlns="http://www.w3.org/2000/svg">
<path d="M3.10739 4.89406H8.93103C10.6403 4.90946 11.8789 5.43834 12.6469 6.47982C13.4148 7.5213 13.6682 8.94382 13.4074 10.7474C13.3061 11.5715 13.0815 12.3798 12.7338 13.1727C12.3959 13.9728 11.9246 14.6999 11.3431 15.3181C10.6186 16.1264 9.84369 16.6394 9.01795 16.8572C8.17864 17.0767 7.31767 17.1863 6.45381 17.1837H3.84621L3.02047 21.6145H0L3.10739 4.89406ZM5.6498 7.55254L4.346 14.5485C4.43292 14.5639 4.51984 14.5719 4.60676 14.5719H4.91098C6.3017 14.5873 7.46077 14.4399 8.38778 14.1288C9.31479 13.8023 9.93799 12.6675 10.2566 10.7241C10.5173 9.09166 10.2566 8.15094 9.47428 7.90234C8.70635 7.65374 7.74326 7.53714 6.58419 7.55254C6.41035 7.56794 6.24389 7.57586 6.0844 7.57586H5.62807L5.6498 7.55254ZM16.8481 0.439941H19.8469L18.9994 4.89406H21.6939C23.1716 4.9253 24.2724 5.25178 24.9969 5.8735C25.7357 6.49522 25.953 7.67706 25.6488 9.41814L24.1929 17.1837H21.1507L22.5414 9.76794C22.6861 8.99046 22.6427 8.4387 22.411 8.11222C22.1794 7.78574 21.6796 7.6225 20.9116 7.6225L18.4996 7.59918L16.7178 17.1837H13.719L16.8481 0.439941ZM28.8689 4.89406H34.6926C36.4018 4.90946 37.6405 5.43834 38.4084 6.47982C39.1763 7.5213 39.4297 8.94382 39.1689 10.7474C39.0677 11.5715 38.843 12.3798 38.4953 13.1727C38.1574 13.9728 37.6861 14.6999 37.1046 15.3181C36.3801 16.1264 35.6052 16.6394 34.7795 16.8572C33.9402 17.0767 33.0792 17.1863 32.2153 17.1837H29.6077L28.782 21.6145H25.7615L28.8689 4.89406ZM31.4113 7.55254L30.1075 14.5485C30.1944 14.5639 30.2814 14.5719 30.3683 14.5719H30.6725C32.0632 14.5873 33.2223 14.4399 34.1493 14.1288C35.0763 13.8023 35.6995 12.6675 36.0181 10.7241C36.2789 9.09166 36.0181 8.15094 35.2358 7.90234C34.4679 7.65374 33.5048 7.53714 32.3457 7.55254C32.1719 7.56794 32.0054 7.57586 31.8459 7.57586H31.3896L31.4113 7.55254Z" fill="white"/>
</svg>
