<svg width="24" height="21" viewBox="0 0 24 21" fill="none" xmlns="http://www.w3.org/2000/svg">
<g clip-path="url(#clip0_115_90)">
<path d="M19.7328 14.2004C19.4774 14.2865 19.2198 14.3663 18.9603 14.4396C19.0039 14.6146 19.044 14.7875 19.0796 14.9574C19.6644 17.7464 19.2821 19.9933 17.9763 20.7331C16.7242 21.4423 14.6767 20.7028 12.6087 18.9346C12.4049 18.7601 12.2056 18.5805 12.0111 18.396C11.8808 18.5187 11.7483 18.639 11.6135 18.7568C9.44616 20.6473 7.27378 21.4441 5.96934 20.7022C4.71844 19.9908 4.34803 17.8786 4.87453 15.2353C4.92691 14.9735 4.98606 14.7131 5.05191 14.4543C4.74441 14.3684 4.44769 14.2771 4.16372 14.1798C1.62272 13.3094 0 11.9454 0 10.5306C0 9.06935 1.74206 7.60367 4.38863 6.71495C4.60319 6.6432 4.81954 6.57671 5.03747 6.51554C4.96669 6.23677 4.90385 5.95611 4.84903 5.67388C4.34709 3.07652 4.73906 1.01419 5.98659 0.30728C7.27509 -0.422747 9.43772 0.327541 11.5434 2.13603C11.7142 2.28306 11.8812 2.43425 12.0443 2.58946C12.255 2.38973 12.4713 2.1958 12.693 2.00791C14.7328 0.283516 16.7473 -0.4128 17.9936 0.296043C19.2809 1.02819 19.6993 3.24369 19.1561 5.93915C19.1133 6.15032 19.0653 6.36044 19.0122 6.56933C19.1641 6.61354 19.3132 6.65904 19.4585 6.70638C22.2098 7.60192 24 9.04982 24 10.5306C24 11.9506 22.3249 13.3238 19.7328 14.2004ZM19.1361 7.66244C19.0048 7.61979 18.8702 7.57862 18.7329 7.53856C18.4292 8.48328 18.0193 9.48778 17.5177 10.5257C17.9963 11.5389 18.3905 12.5306 18.6857 13.4691C18.9312 13.3993 19.1694 13.3257 19.3991 13.2481C21.6201 12.4969 22.9748 11.3863 22.9748 10.5306C22.9748 9.61912 21.5117 8.43584 19.1361 7.66244ZM18.1504 5.74352C18.3906 4.55167 18.4248 3.47404 18.2657 2.63156C18.1228 1.87454 17.8354 1.3699 17.4799 1.16773C16.7236 0.737595 15.1061 1.29667 13.3617 2.77146C13.1555 2.94615 12.9543 3.12644 12.7582 3.31212C13.4346 4.03874 14.1104 4.88344 14.77 5.82162C15.9303 5.92275 17.0264 6.08817 18.0204 6.31392C18.0694 6.11986 18.1129 5.92957 18.1504 5.74352ZM8.18213 1.24206C7.44319 0.985725 6.85462 0.978357 6.49884 1.17988C5.74181 1.60882 5.42709 3.26478 5.85637 5.48599C5.9074 5.74846 5.96583 6.0095 6.03159 6.26879C7.01466 6.05511 8.10281 5.90148 9.26578 5.80882C9.92991 4.89081 10.6252 4.04703 11.326 3.30816C11.1771 3.16658 11.0247 3.02863 10.8688 2.89442C9.93759 2.09477 9.0045 1.5274 8.18213 1.24206ZM4.72031 7.66806C3.55003 8.06107 2.58356 8.57179 1.92113 9.12912C1.32581 9.6299 1.02534 10.1272 1.02534 10.5306C1.02534 11.3892 2.32819 12.4843 4.50122 13.2286C4.76494 13.3189 5.04094 13.4041 5.32734 13.484C5.62772 12.5243 6.02166 11.5208 6.49706 10.5061C6.01547 9.47636 5.61591 8.45684 5.31262 7.48578C5.1137 7.54176 4.9162 7.60254 4.72031 7.66806ZM5.88075 15.4288C5.42972 17.6934 5.72925 19.4017 6.48309 19.8305C7.28597 20.2871 9.06141 19.636 10.9327 18.0036C11.0548 17.8969 11.1748 17.788 11.2928 17.677C10.5955 16.9414 9.90656 16.1039 9.24834 15.1913C8.11959 15.0885 7.03912 14.9235 6.04575 14.7023C5.98455 14.9431 5.92953 15.1854 5.88075 15.4288ZM16.2333 12.9173C15.9986 13.3155 15.7553 13.7087 15.5034 14.0965C16.2692 14.0014 17.0029 13.8751 17.6918 13.7208C17.485 13.0694 17.2272 12.3885 16.9237 11.6903C16.7019 12.1038 16.4717 12.5129 16.2333 12.9173ZM12.0115 16.9571C12.4844 16.4538 12.958 15.8919 13.4239 15.2821C12.4789 15.326 11.5323 15.3262 10.5873 15.2827C11.0536 15.8868 11.5312 16.448 12.0115 16.9571ZM7.76269 12.9104C7.52722 12.5092 7.30131 12.1027 7.08516 11.6911C6.78666 12.3868 6.53119 13.0709 6.32259 13.7314C7.00734 13.8819 7.73756 14.005 8.49844 14.0984C8.24376 13.7081 7.99844 13.312 7.76269 12.9104ZM8.52028 6.89115C7.73419 6.97736 6.993 7.09405 6.30844 7.2405C6.52031 7.91287 6.78141 8.61149 7.08637 9.32208C7.30339 8.91022 7.53023 8.50344 7.76672 8.10205C8.00991 7.68942 8.26172 7.28526 8.52028 6.89115ZM12.0398 4.03312C11.5538 4.54817 11.0692 5.11803 10.5958 5.7309C11.0554 5.71321 11.5238 5.70419 12 5.70419C12.4892 5.70419 12.9728 5.71496 13.4487 5.73578C12.9814 5.11186 12.5095 4.54117 12.0398 4.03312ZM16.9334 9.35837C17.2542 8.63995 17.5246 7.94502 17.7393 7.28416C17.0435 7.12813 16.2922 7.0025 15.5005 6.9092C15.7542 7.30428 15.9998 7.70428 16.2373 8.10896C16.4788 8.52031 16.7108 8.93688 16.9334 9.35837ZM15.3492 8.61223C14.9857 7.99177 14.6017 7.38309 14.1979 6.78716C13.4664 6.73626 12.7333 6.71098 12 6.71136C11.2531 6.71136 10.5266 6.7342 9.82706 6.77878C9.41271 7.37333 9.0214 7.98308 8.65397 8.6067C8.28827 9.22702 7.94677 9.86076 7.63003 10.5066C7.94597 11.1525 8.28652 11.7865 8.65097 12.4073L8.65088 12.4072C9.01519 13.0282 9.40337 13.6353 9.81459 14.2273C10.5283 14.2804 11.2602 14.308 11.9999 14.308C12.743 14.308 13.4759 14.2801 14.1894 14.2267C14.5965 13.6356 14.9822 13.0305 15.3458 12.4127C15.7115 11.7932 16.0566 11.1623 16.3805 10.5208C16.0599 9.8728 15.7159 9.2362 15.3492 8.61223ZM17.4642 19.8605C18.2678 19.4051 18.5804 17.5688 18.0755 15.1607C18.0432 15.0071 18.007 14.8506 17.9677 14.6919C16.9718 14.9178 15.8906 15.0857 14.7586 15.19C14.0992 16.1126 13.4158 16.9514 12.7298 17.6776C12.9096 17.8479 13.0937 18.0137 13.2818 18.175C15.0537 19.6898 16.7097 20.288 17.4642 19.8605ZM12 12.6361C13.1836 12.6361 14.1431 11.6934 14.1431 10.5306C14.1431 9.36777 13.1836 8.42507 12 8.42507C10.8164 8.42507 9.85687 9.36777 9.85687 10.5306C9.85687 11.6934 10.8164 12.6361 12 12.6361Z" fill="white"/>
</g>
<defs>
<clipPath id="clip0_115_90">
<rect width="24" height="21" fill="white" transform="matrix(1 0 0 -1 0 21)"/>
</clipPath>
</defs>
</svg>
