<svg width="24" height="24" viewBox="0 0 24 24" fill="none" xmlns="http://www.w3.org/2000/svg">
<g clip-path="url(#clip0_115_189)">
<path d="M1.70605 11.9996C1.70605 16.0743 4.07407 19.5957 7.50787 21.2644L2.59732 7.81006C2.02613 9.09034 1.70605 10.5072 1.70605 11.9996Z" fill="white"/>
<path d="M18.9499 11.4801C18.9499 10.2078 18.4929 9.32673 18.101 8.64095C17.5792 7.79298 17.09 7.07488 17.09 6.2269C17.09 5.2806 17.8078 4.39972 18.8187 4.39972C18.8643 4.39972 18.9076 4.4054 18.9521 4.40795C17.1206 2.73003 14.6805 1.70557 12.0005 1.70557C8.40407 1.70557 5.23999 3.55077 3.39929 6.34561C3.64081 6.35286 3.86843 6.35795 4.06176 6.35795C5.13852 6.35795 6.80528 6.2273 6.80528 6.2273C7.36021 6.19458 7.42564 7.00965 6.87129 7.07527C6.87129 7.07527 6.31362 7.14089 5.69307 7.17341L9.44185 18.324L11.6947 11.5674L10.0908 7.17301C9.53646 7.1405 9.0113 7.07488 9.0113 7.07488C8.45656 7.04236 8.5216 6.19419 9.07633 6.2269C9.07633 6.2269 10.7764 6.35756 11.7879 6.35756C12.8645 6.35756 14.5314 6.2269 14.5314 6.2269C15.0868 6.19419 15.152 7.00926 14.5975 7.07488C14.5975 7.07488 14.0386 7.1405 13.4192 7.17301L17.1394 18.2391L18.1662 14.8079C18.6113 13.384 18.9499 12.3613 18.9499 11.4801Z" fill="white"/>
<path d="M12.1811 12.9004L9.09241 21.8755C10.0146 22.1466 10.9899 22.2949 12.0005 22.2949C13.1993 22.2949 14.3489 22.0876 15.419 21.7113C15.3914 21.6673 15.3663 21.6205 15.3457 21.5695L12.1811 12.9004Z" fill="white"/>
<path d="M21.0333 7.06055C21.0776 7.38845 21.1026 7.74045 21.1026 8.11909C21.1026 9.16373 20.9075 10.338 20.3199 11.8064L17.1754 20.8978C20.2359 19.1131 22.2944 15.7975 22.2944 11.9997C22.2946 10.2099 21.8374 8.52692 21.0333 7.06055Z" fill="white"/>
<path d="M12.0006 0C5.3839 0 0.000488281 5.38302 0.000488281 11.9997C0.000488281 18.6172 5.3839 24 12.0006 24C18.6171 24 24.0013 18.6172 24.0013 11.9997C24.0011 5.38302 18.6171 0 12.0006 0ZM12.0006 23.45C5.68732 23.45 0.55072 18.3134 0.55072 11.9997C0.55072 5.68644 5.68713 0.550231 12.0006 0.550231C18.3137 0.550231 23.4499 5.68644 23.4499 11.9997C23.4499 18.3134 18.3137 23.45 12.0006 23.45Z" fill="white"/>
</g>
<defs>
<clipPath id="clip0_115_189">
<rect width="24" height="24" fill="white"/>
</clipPath>
</defs>
</svg>
